<svg width="14" height="14" viewBox="0 0 14 14" fill="none" xmlns="http://www.w3.org/2000/svg" id="search">
<path d="M3.24609 7.52734C3.90234 8.18359 4.69922 8.51172 5.63672 8.51172C6.57422 8.51172 7.37109 8.18359 8.02734 7.52734C8.68359 6.87109 9.01172 6.07422 9.01172 5.13672C9.01172 4.19922 8.68359 3.40234 8.02734 2.74609C7.37109 2.08984 6.57422 1.76172 5.63672 1.76172C4.69922 1.76172 3.90234 2.08984 3.24609 2.74609C2.58984 3.40234 2.26172 4.19922 2.26172 5.13672C2.26172 6.07422 2.58984 6.87109 3.24609 7.52734ZM10.1367 8.51172L13.8633 12.2383L12.7383 13.3633L9.01172 9.63672V9.03906L8.80078 8.82812C7.91016 9.60156 6.85547 9.98828 5.63672 9.98828C4.27734 9.98828 3.11719 9.51953 2.15625 8.58203C1.21875 7.64453 0.75 6.49609 0.75 5.13672C0.75 3.77734 1.21875 2.62891 2.15625 1.69141C3.11719 0.730469 4.27734 0.25 5.63672 0.25C6.99609 0.25 8.14453 0.730469 9.08203 1.69141C10.0195 2.62891 10.4883 3.77734 10.4883 5.13672C10.4883 5.62891 10.3711 6.19141 10.1367 6.82422C9.90234 7.43359 9.63281 7.92578 9.32812 8.30078L9.53906 8.51172H10.1367Z"  fill="currentColor"/>
</svg>
