<svg width="40" height="38" viewBox="0 0 40 38" fill="none" xmlns="http://www.w3.org/2000/svg" id="smile">
<path d="M22.0625 22.0312C21.4583 22.4479 20.7708 22.6562 20 22.6562C19.2292 22.6562 18.5312 22.4479 17.9062 22.0312C17.3021 21.5938 16.8646 21.0312 16.5938 20.3438H17.6875C18.2083 21.2188 18.9792 21.6562 20 21.6562C21.0208 21.6562 21.7917 21.2188 22.3125 20.3438H23.4062C23.1354 21.0312 22.6875 21.5938 22.0625 22.0312ZM16.2188 22.7812C17.2812 23.8229 18.5417 24.3438 20 24.3438C21.4583 24.3438 22.7083 23.8229 23.75 22.7812C24.8125 21.7188 25.3438 20.4583 25.3438 19C25.3438 17.5417 24.8125 16.2917 23.75 15.25C22.7083 14.1875 21.4583 13.6562 20 13.6562C18.5417 13.6562 17.2812 14.1875 16.2188 15.25C15.1771 16.2917 14.6562 17.5417 14.6562 19C14.6562 20.4583 15.1771 21.7188 16.2188 22.7812ZM15.2812 14.3125C16.5938 13 18.1667 12.3438 20 12.3438C21.8333 12.3438 23.3958 13 24.6875 14.3125C26 15.6042 26.6562 17.1667 26.6562 19C26.6562 20.8333 26 22.4062 24.6875 23.7188C23.3958 25.0104 21.8333 25.6562 20 25.6562C18.1667 25.6562 16.5938 25.0104 15.2812 23.7188C13.9896 22.4062 13.3438 20.8333 13.3438 19C13.3438 17.1667 13.9896 15.6042 15.2812 14.3125ZM18.3438 18.0625C18.1562 18.25 17.9271 18.3438 17.6562 18.3438C17.3854 18.3438 17.1458 18.25 16.9375 18.0625C16.75 17.8542 16.6562 17.6146 16.6562 17.3438C16.6562 17.0729 16.75 16.8438 16.9375 16.6562C17.1458 16.4479 17.3854 16.3438 17.6562 16.3438C17.9271 16.3438 18.1562 16.4479 18.3438 16.6562C18.5521 16.8438 18.6562 17.0729 18.6562 17.3438C18.6562 17.6146 18.5521 17.8542 18.3438 18.0625ZM23.0312 18.0625C22.8438 18.25 22.6146 18.3438 22.3438 18.3438C22.0729 18.3438 21.8333 18.25 21.625 18.0625C21.4375 17.8542 21.3438 17.6146 21.3438 17.3438C21.3438 17.0729 21.4375 16.8438 21.625 16.6562C21.8333 16.4479 22.0729 16.3438 22.3438 16.3438C22.6146 16.3438 22.8438 16.4479 23.0312 16.6562C23.2396 16.8438 23.3438 17.0729 23.3438 17.3438C23.3438 17.6146 23.2396 17.8542 23.0312 18.0625Z" fill="white"/>
</svg>
